<mxfile host="app.diagrams.net" modified="2024-05-16T13:56:18.708Z" agent="Mozilla/5.0 (Macintosh; Intel Mac OS X 10.15; rv:126.0) Gecko/20100101 Firefox/126.0" etag="mXU9SdZZj0m1CTaW0i69" version="24.2.7" type="github">
  <diagram name="Page-1" id="u4DxyU6BI0TSQ7bg5pkQ">
    <mxGraphModel dx="844" dy="532" grid="1" gridSize="10" guides="1" tooltips="1" connect="1" arrows="1" fold="1" page="1" pageScale="1" pageWidth="827" pageHeight="1169" math="0" shadow="0">
      <root>
        <mxCell id="0" />
        <mxCell id="1" parent="0" />
        <mxCell id="-00R2F4Bpn7ypyN0aPdk-1" value="drgdfgd" style="rounded=0;whiteSpace=wrap;html=1;" vertex="1" parent="1">
          <mxGeometry x="350" y="250" width="120" height="60" as="geometry" />
        </mxCell>
      </root>
    </mxGraphModel>
  </diagram>
</mxfile>
